<svg width="30" height="31" viewBox="0 0 30 31" fill="none" xmlns="http://www.w3.org/2000/svg">
<path d="M7.5 9.25H13.75C14.0815 9.25 14.3995 9.3817 14.6339 9.61612C14.8683 9.85054 15 10.1685 15 10.5C15 10.8315 14.8683 11.1495 14.6339 11.3839C14.3995 11.6183 14.0815 11.75 13.75 11.75H7.5C7.16848 11.75 6.85054 11.6183 6.61612 11.3839C6.3817 11.1495 6.25 10.8315 6.25 10.5C6.25 10.1685 6.3817 9.85054 6.61612 9.61612C6.85054 9.3817 7.16848 9.25 7.5 9.25ZM16.25 19.25H22.5C22.8315 19.25 23.1495 19.3817 23.3839 19.6161C23.6183 19.8505 23.75 20.1685 23.75 20.5C23.75 20.8315 23.6183 21.1495 23.3839 21.3839C23.1495 21.6183 22.8315 21.75 22.5 21.75H16.25C15.9185 21.75 15.6005 21.6183 15.3661 21.3839C15.1317 21.1495 15 20.8315 15 20.5C15 20.1685 15.1317 19.8505 15.3661 19.6161C15.6005 19.3817 15.9185 19.25 16.25 19.25ZM7.5 14.25H22.5C22.8315 14.25 23.1495 14.3817 23.3839 14.6161C23.6183 14.8505 23.75 15.1685 23.75 15.5C23.75 15.8315 23.6183 16.1495 23.3839 16.3839C23.1495 16.6183 22.8315 16.75 22.5 16.75H7.5C7.16848 16.75 6.85054 16.6183 6.61612 16.3839C6.3817 16.1495 6.25 15.8315 6.25 15.5C6.25 15.1685 6.3817 14.8505 6.61612 14.6161C6.85054 14.3817 7.16848 14.25 7.5 14.25Z" fill="black"/>
</svg>
